<svg id="Layer_1" data-name="Layer 1" xmlns="http://www.w3.org/2000/svg" viewBox="0 0 244 202"><defs><style>.cls-1{fill:#e63946;}.cls-2{fill:#1d3557;}.cls-3{fill:#00a20a;}</style></defs><title>logos</title><path class="cls-1" d="M97.73,147.8C62.27,140.86,42.5,111.5,43.5,78.5c4,30,17,59,54,66,5-20-9-20-21-37-.22-6.11-6.66-22.94-5.22-28.84C58,73.53,46.14,68.37,42.87,59.5c-26.79,50,.78,100.86,54.86,88.31Z"/><path class="cls-2" d="M121.2,26C91.39,26,67,49.85,67,79s24.39,53,54.2,53,54.2-23.85,54.2-53S151,26,121.2,26Z"/><path class="cls-3" d="M121.2,26C91.39,26,67,49.85,67,79s24.39,53,54.2,53,54.2-23.85,54.2-53S151,26,121.2,26Zm0,101.32A49.26,49.26,0,0,1,89.8,116.26c1-2.81,2.71-8.57,2.71-10.76,0-3.12-6.38-3.12-8-4.68S82.94,94.59,81.35,93c-1.28-1.25-6.38-3.43-8.61-4.21a48.91,48.91,0,0,1-1-9.82,34.45,34.45,0,0,1,.16-4.05c3.51-1.71,11-5.77,11-6.86,0-1.56-3.19-9.35-3.19-10.91s3.19-4.68,4.78-4.68,1.59,6.24,3.19,6.24,6.38-9.35,6.38-10.91c0-1.4-3.51-5-4.46-5.92a50,50,0,0,1,55.16-5.3c-2.87,1.71-8.13,5-9.25,5H126c-1.59,0-9.09,6.7-8,7.79,1.59,1.56,6.38-1.56,8-1.56s1.59,4.68,0,6.24-11.16,1.56-12.75,1.56-4.78,6.24-4.78,7.79a3.39,3.39,0,0,0,3.19,3.12c1.59,0,9.57-6.24,11.16-6.24s4.78,3.12,6.38,3.12,6.38-4.68,8-3.12-4.78,4.68-4.78,6.24,1.59,1.56,3.19,1.56,1.59,3.12,0,3.12H124.39c-1.59,0-3.19-3.12-4.78-3.12s-17.54,6.24-17.54,7.79v9.35c0,1.56,6.38,6.24,8,6.24s4.78-1.56,6.38-1.56,6.38,7.79,6.38,9.35-1.59,3.12-1.59,4.68,1.59,4.68,3.19,6.24,4.78,3.12,6.38,1.56,9.57-9.35,9.57-10.91V96.15c0-1.56,5.58-4.36,4.78-6.24-.48-1.09-3.19,0-4.78-1.56s-1.59-14-1.59-14,3.19,9.35,4.78,10.91,6.38-3.12,6.38-4.68-3.19-7.79-3.19-7.79l3.19,3.12c1.59,1.56,3.19,0,4.78,0s4.78,10.91,6.38,10.91,1.59-4.68,3.19-6.24c1.12-1.09,4.3-1.4,6.38-1.56C170.63,105.66,148.47,127.32,121.2,127.32Z"/><path class="cls-1" d="M210.49,99.61c-21,3.23-33.17,44.31-56.78,59.88C139.42,169,111.89,168.08,95,147c30.69.46,62.41-8.31,84.69-39-24.19,28-53,38.17-85.74,35.76a27,27,0,0,1-.52-3.45C92.93,82.23,159.2,63,210.49,99.61Z"/></svg>